<?xml version="1.0" standalone="no"?><!DOCTYPE svg PUBLIC "-//W3C//DTD SVG 1.1//EN" "http://www.w3.org/Graphics/SVG/1.1/DTD/svg11.dtd"><svg t="1564388917448" class="icon" viewBox="0 0 1141 1024" version="1.1" xmlns="http://www.w3.org/2000/svg" p-id="631" xmlns:xlink="http://www.w3.org/1999/xlink" width="222.8515625" height="200"><defs><style type="text/css"></style></defs><path d="M1081.469388 192.261224h-76.277551v-57.469387C1004.146939 70.008163 949.812245 0 829.64898 0H309.289796C189.126531 0 134.791837 70.008163 134.791837 134.791837v57.469387H57.469388c-38.661224 0-57.469388 18.808163-57.469388 57.469388v622.759184C0 940.408163 33.436735 950.857143 53.289796 950.857143h74.187755v20.897959c0 2.089796 0 20.897959 14.628571 34.481633 6.269388 6.269388 17.763265 13.583673 36.571429 13.583673h783.673469c18.808163 0 30.302041-7.314286 36.571429-13.583673C1012.506122 992.653061 1013.55102 973.844898 1013.55102 971.755102v-20.897959h74.187756c19.853061 0 53.289796-10.44898 53.289795-78.367347V249.730612c-2.089796-38.661224-20.897959-57.469388-59.559183-57.469388z" fill="#1296db" p-id="632"></path></svg>